<svg xmlns="http://www.w3.org/2000/svg" width="350" height="210" viewBox="0 0 350 210" preserveAspectRatio="none" role="img" aria-label="Pastel pixel art habit path landscape background">
  <g shape-rendering="crispEdges">
    <rect x="0" y="0" width="350" height="210" fill="#DFF5FF"/>
    <rect x="0" y="118" width="350" height="92" fill="#BFEBCD"/>
    <rect x="0" y="142" width="350" height="68" fill="#96D9AD"/>
    <rect x="0" y="166" width="350" height="44" fill="#74C890"/>
    <rect x="0" y="190" width="350" height="20" fill="#5EAF7C"/>
    <path d="M0 116H18V106H34V94H54V82H72V210H0Z" fill="#9DCEB4"/>
    <path d="M276 112H292V100H312V88H334V76H350V210H276Z" fill="#9ECFB6"/>
    <path d="M214 130H232V118H252V106H274V210H214Z" fill="#AFDDC5"/>
    <path d="M72 132H88V120H108V108H126V210H72Z" fill="#A7D8BE"/>
    <rect x="248" y="48" width="42" height="12" fill="#FFFFFF"/>
    <rect x="262" y="36" width="18" height="12" fill="#FFFFFF"/>
    <rect x="282" y="42" width="20" height="18" fill="#FFFFFF"/>
    <rect x="292" y="54" width="22" height="10" fill="#FFFFFF"/>
    <rect x="40" y="72" width="38" height="10" fill="#FFFFFF" opacity="0.96"/>
    <rect x="54" y="62" width="18" height="10" fill="#FFFFFF" opacity="0.96"/>
    <rect x="16" y="96" width="26" height="8" fill="#FFFFFF" opacity="0.82"/>
    <rect x="168" y="88" width="74" height="14" fill="#75C986"/>
    <rect x="156" y="102" width="102" height="14" fill="#64B879"/>
    <rect x="144" y="116" width="128" height="16" fill="#56A86E"/>
    <rect x="132" y="132" width="154" height="18" fill="#4C9865"/>
    <rect x="172" y="74" width="18" height="14" fill="#91DFA0"/>
    <rect x="232" y="78" width="16" height="10" fill="#91DFA0"/>
    <rect x="202" y="66" width="10" height="10" fill="#A9EDB4"/>
    <rect x="228" y="120" width="18" height="10" fill="#F46F64"/>
    <rect x="246" y="116" width="8" height="8" fill="#FF9C90"/>
    <rect x="236" y="110" width="6" height="6" fill="#56A6F7"/>
    <rect x="254" y="126" width="8" height="8" fill="#F8C747"/>
    <rect x="104" y="150" width="24" height="10" fill="#6DBB7F"/>
    <rect x="116" y="140" width="16" height="10" fill="#87D494"/>
    <rect x="122" y="160" width="22" height="10" fill="#5CAA73"/>
    <rect x="304" y="132" width="18" height="10" fill="#87D494"/>
    <rect x="316" y="122" width="14" height="10" fill="#A9EDB4"/>
  </g>
</svg>
